HIERARCHY
ROOT Hips
{
	OFFSET 0.00000 0.00000 0.00000
	CHANNELS 6 Xposition Yposition Zposition Zrotation Yrotation Xrotation 
	JOINT LHipJoint
	{
		OFFSET 0 0 0
		CHANNELS 3 Zrotation Yrotation Xrotation
		JOINT LeftUpLeg
		{
			OFFSET 1.41496 -1.84582 0.78394
			CHANNELS 3 Zrotation Yrotation Xrotation
			JOINT LeftLeg
			{
				OFFSET 2.58040 -7.08960 0.00000
				CHANNELS 3 Zrotation Yrotation Xrotation
				JOINT LeftFoot
				{
					OFFSET 2.64719 -7.27309 0.00000
					CHANNELS 3 Zrotation Yrotation Xrotation
					JOINT LeftToeBase
					{
						OFFSET 0.20718 -0.56921 2.20259
						CHANNELS 3 Zrotation Yrotation Xrotation
						End Site
						{
							OFFSET 0.00000 -0.00000 1.14243
						}
					}
				}
			}
		}
	}
	JOINT RHipJoint
	{
		OFFSET 0 0 0
		CHANNELS 3 Zrotation Yrotation Xrotation
		JOINT RightUpLeg
		{
			OFFSET -1.40551 -1.84582 0.78394
			CHANNELS 3 Zrotation Yrotation Xrotation
			JOINT RightLeg
			{
				OFFSET -2.56572 -7.04926 0.00000
				CHANNELS 3 Zrotation Yrotation Xrotation
				JOINT RightFoot
				{
					OFFSET -2.57974 -7.08778 0.00000
					CHANNELS 3 Zrotation Yrotation Xrotation
					JOINT RightToeBase
					{
						OFFSET -0.26704 -0.73369 2.20815
						CHANNELS 3 Zrotation Yrotation Xrotation
						End Site
						{
							OFFSET -0.00000 -0.00000 1.16246
						}
					}
				}
			}
		}
	}
	JOINT LowerBack
	{
		OFFSET 0 0 0
		CHANNELS 3 Zrotation Yrotation Xrotation
		JOINT Spine
		{
			OFFSET -0.04690 2.05196 -0.07017
			CHANNELS 3 Zrotation Yrotation Xrotation
			JOINT Spine1
			{
				OFFSET 0.04085 2.05260 0.00800
				CHANNELS 3 Zrotation Yrotation Xrotation
				JOINT Neck
				{
					OFFSET 0 0 0
					CHANNELS 3 Zrotation Yrotation Xrotation
					JOINT Neck1
					{
						OFFSET -0.03582 1.80995 0.19301
						CHANNELS 3 Zrotation Yrotation Xrotation
						JOINT Head
						{
							OFFSET 0.00952 1.80195 -0.36389
							CHANNELS 3 Zrotation Yrotation Xrotation
							End Site
							{
								OFFSET 0.00392 1.85062 -0.14494
							}
						}
					}
				}
				JOINT LeftShoulder
				{
					OFFSET 0 0 0
					CHANNELS 3 Zrotation Yrotation Xrotation
					JOINT LeftArm
					{
						OFFSET 3.55224 1.39726 -0.13667
						CHANNELS 3 Zrotation Yrotation Xrotation
						JOINT LeftForeArm
						{
							OFFSET 5.14507 -0.00000 -0.00000
							CHANNELS 3 Zrotation Yrotation Xrotation
							JOINT LeftHand
							{
								OFFSET 3.50646 -0.00000 0.00000
								CHANNELS 3 Zrotation Yrotation Xrotation
								JOINT LeftFingerBase
								{
									OFFSET 0 0 0
									CHANNELS 3 Zrotation Yrotation Xrotation
									JOINT LeftHandIndex1
									{
										OFFSET 0.62997 -0.00000 0.00000
										CHANNELS 3 Zrotation Yrotation Xrotation
										End Site
										{
											OFFSET 0.50790 -0.00000 0.00000
										}
									}
								}
								JOINT LThumb
								{
									OFFSET 0 0 0
									CHANNELS 3 Zrotation Yrotation Xrotation
									End Site
									{
										OFFSET 0.51565 -0.00000 0.51565
									}
								}
							}
						}
					}
				}
				JOINT RightShoulder
				{
					OFFSET 0 0 0
					CHANNELS 3 Zrotation Yrotation Xrotation
					JOINT RightArm
					{
						OFFSET -3.06467 1.61290 -0.28813
						CHANNELS 3 Zrotation Yrotation Xrotation
						JOINT RightForeArm
						{
							OFFSET -5.23200 -0.00000 -0.00000
							CHANNELS 3 Zrotation Yrotation Xrotation
							JOINT RightHand
							{
								OFFSET -3.65641 -0.00000 0.00000
								CHANNELS 3 Zrotation Yrotation Xrotation
								JOINT RightFingerBase
								{
									OFFSET 0 0 0
									CHANNELS 3 Zrotation Yrotation Xrotation
									JOINT RightHandIndex1
									{
										OFFSET -0.65681 -0.00000 0.00000
										CHANNELS 3 Zrotation Yrotation Xrotation
										End Site
										{
											OFFSET -0.52953 -0.00000 0.00000
										}
									}
								}
								JOINT RThumb
								{
									OFFSET 0 0 0
									CHANNELS 3 Zrotation Yrotation Xrotation
									End Site
									{
										OFFSET -0.53762 -0.00000 0.53762
									}
								}
							}
						}
					}
				}
			}
		}
	}
}
MOTION
Frames: 13
Frame Time: .0083333
14.6921 16.419 -44.3007 0 0 0 0 0 0 -21 0 0 0 0 0 0 0 0 0 0 0 0 0 0 21 0 0 0 0 0 0 0 0 0 0 0 0 0 0 0 0 0 0 0 0 0 0 -16 0 0 21 0 0 11 0 0 0 -8 0 0 0 0 0 0 0 0 0 0 0 0 0 0 0 0 0 0 0 0 8 0 0 0 0 0 0 0 0 0 0 0 0 0 0 0 0 0
14.6921 16.4190 -44.3007 0.8760 7.2184 26.2570 0.0000 0.0000 0.0000 -10.3730 -12.3100 -70.3137 12.6003 18.6330 67.8792 -0.5435 -19.5203 -8.5148 0.0097 -0.6366 -1.7495 0.0000 0.0000 0.0000 30.1934 3.0106 -4.4580 -9.0171 -16.8187 56.1494 -1.2330 -9.4758 19.9629 -1.1939 6.9334 -19.5182 3.9616 0.2239 15.3085 0.4497 1.0367 0.1843 -1.9927 0.3481 -8.3511 -4.7821 -6.4061 -16.0071 5.0558 -7.7967 -3.1398 1.9429 -3.7071 2.1775 0.0000 0.0000 0.0000 -86.3529 45.0655 34.1409 107.8509 -58.7610 -75.3950 -0.0000 0.0000 -16.1861 22.9012 -9.3721 -3.9353 -7.1250 0.0000 -0.0000 -2.8931 19.8284 1.7424 0.0000 0.0000 0.0000 78.7457 -7.1782 40.5605 -111.4207 58.1932 -78.4383 0.0000 -0.0000 -11.4797 -19.4729 7.0385 -2.4809 7.1250 -0.0000 -0.0000 5.3501 -22.5289 2.9042
14.6751 16.3910 -43.8020 2.3773 7.6175 25.9144 0.0000 0.0000 0.0000 -12.6333 -12.6418 -66.9858 12.4786 18.5857 67.4981 -0.1243 -18.5328 -11.8902 0.0008 0.1837 0.5047 0.0000 0.0000 0.0000 28.7068 2.4967 -7.4396 -10.7516 -17.8114 61.9721 -0.8746 -8.8019 16.8744 -0.9396 6.1741 -17.2905 2.9713 -0.0024 15.7231 -0.0065 0.5372 0.2574 -1.8151 0.1360 -8.5386 -4.8282 -6.4953 -15.8013 5.3115 -7.9201 -3.2535 2.0321 -3.7636 2.1252 -0.0000 -0.0000 0.0000 -86.7297 42.3922 34.9011 106.9368 -58.8879 -74.6129 -0.0000 0.0000 -15.8840 22.5925 -9.4769 -3.9193 -7.1250 0.0000 -0.0000 -3.1169 19.7391 1.8838 -0.0000 -0.0000 0.0000 80.6026 -8.8731 39.0218 -103.3083 59.3201 -71.4990 0.0000 -0.0000 -12.4745 -19.6067 6.5917 -2.3416 7.1250 -0.0000 -0.0000 5.2564 -22.9940 2.7968
14.6607 16.3489 -43.3127 3.6821 7.9962 25.6857 0.0000 0.0000 0.0000 -14.6738 -12.7666 -64.0527 12.3766 18.5454 67.1777 0.2206 -18.9252 -15.1711 0.0245 1.0099 2.7761 0.0000 0.0000 0.0000 27.2810 2.1532 -10.6372 -12.5813 -18.6257 67.8198 -0.6876 -7.3680 14.8900 -0.8157 5.7632 -16.0989 2.1300 -0.2465 16.1269 -0.3566 0.0417 0.2530 -1.6034 -0.0778 -8.7959 -5.0529 -6.5017 -15.7952 5.5652 -7.8980 -3.1995 2.1582 -3.7422 2.1682 -0.0000 0.0000 0.0000 -87.3594 39.6094 35.5996 105.8340 -59.0311 -73.6681 -0.0000 0.0000 -15.7811 22.8230 -9.4507 -3.9529 -7.1250 0.0000 -0.0000 -2.9514 19.7496 1.7828 -0.0000 0.0000 0.0000 82.3879 -10.4232 37.3366 -94.2876 59.9304 -63.7123 0.0000 -0.0000 -13.2858 -19.5884 6.0820 -2.1592 7.1250 -0.0000 -0.0000 5.2763 -23.5326 2.7420
14.6446 16.2941 -42.8371 5.1912 8.6548 25.4715 0.0000 0.0000 0.0000 -16.7161 -13.1309 -61.0837 12.2829 18.5077 66.8827 0.6472 -18.5968 -18.2514 0.0338 1.1862 3.2612 0.0000 0.0000 0.0000 25.7254 1.5904 -14.0257 -14.4050 -19.2323 73.4376 -0.4702 -6.0270 12.2897 -0.9461 6.1949 -17.3510 1.2572 -0.6118 16.6367 -0.6883 -0.6258 0.2799 -1.3070 -0.3689 -9.0762 -5.2601 -6.4936 -15.7343 5.7796 -7.8576 -3.2614 2.2725 -3.7147 2.1575 -0.0000 0.0000 0.0000 -87.9549 36.6606 36.3991 104.6620 -59.1719 -72.6623 -0.0000 0.0000 -15.9521 23.2120 -9.4013 -4.0071 -7.1250 0.0000 -0.0000 -2.6718 19.7728 1.6122 -0.0000 0.0000 0.0000 84.1786 -11.7055 35.2850 -84.7276 59.8947 -55.4356 0.0000 -0.0000 -13.9193 -20.1080 5.6858 -2.0773 7.1250 -0.0000 -0.0000 4.8970 -23.9308 2.4984
14.6331 16.2901 -42.3460 6.8238 8.7055 25.6191 0.0000 0.0000 0.0000 -18.5244 -13.5003 -58.2485 12.1580 18.4567 66.4889 0.9538 -18.4950 -20.3473 0.0066 0.5255 1.4440 0.0000 0.0000 0.0000 23.4336 1.7277 -18.1377 -16.1666 -19.6440 78.7276 -0.3031 -4.8582 9.8593 -1.3802 7.4340 -21.0076 -0.1479 -0.8550 16.7094 -0.9702 -1.2410 0.3090 -0.6638 -0.6071 -9.0813 -5.1956 -6.3844 -15.8516 5.5861 -7.7078 -3.3941 2.2067 -3.6454 2.1099 0.0000 0.0000 0.0000 -89.0516 33.1087 36.9651 103.3653 -59.3142 -71.5480 -0.0000 0.0000 -16.8168 22.8780 -9.4912 -3.9802 -7.1250 0.0000 -0.0000 -2.9133 19.7017 1.7629 0.0000 0.0000 0.0000 85.3091 -12.9785 33.5995 -75.4447 59.1842 -47.4292 0.0000 -0.0000 -13.9032 -21.0868 6.1618 -2.3701 7.1250 -0.0000 -0.0000 4.1681 -23.3833 2.1771
14.6218 16.2398 -41.8739 8.2332 9.0504 25.6890 0.0000 0.0000 0.0000 -20.1197 -13.8876 -55.4893 12.0329 18.4045 66.0932 1.3301 -18.3712 -22.7464 0.0050 0.4562 1.2536 0.0000 0.0000 0.0000 21.5021 1.4742 -21.9599 -17.9090 -19.8948 83.8761 -0.1797 -3.7798 7.5900 -1.5307 7.8113 -22.1425 -1.1248 -1.1304 16.9235 -1.2453 -1.8209 0.2976 -0.2622 -0.8460 -9.2005 -5.3134 -6.3470 -15.8318 5.6779 -7.6368 -3.5152 2.2659 -3.6068 2.0723 0.0000 0.0000 0.0000 -89.7478 29.8489 37.8390 102.4435 -59.4068 -70.7549 -0.0000 0.0000 -17.3182 22.7304 -9.6143 -4.0024 -7.1250 0.0000 -0.0000 -3.0224 19.5805 1.8373 0.0000 0.0000 0.0000 86.5959 -14.3634 31.4236 -67.3309 57.9663 -40.5020 0.0000 -0.0000 -14.0931 -21.6504 6.1055 -2.4175 7.1250 -0.0000 -0.0000 3.7515 -23.4178 1.9556
14.6121 16.1867 -41.4079 9.5320 9.3824 25.8469 0.0000 0.0000 0.0000 -21.4675 -14.3095 -52.8530 11.8912 18.3443 65.6436 1.6748 -18.4424 -24.8644 0.0032 0.3663 1.0065 0.0000 0.0000 0.0000 19.5450 1.2987 -26.0255 -19.5631 -19.9954 88.7226 -0.0922 -2.8127 5.4482 -1.6796 8.1641 -23.2137 -1.9871 -1.4020 17.0735 -1.4740 -2.3731 0.2618 0.1182 -1.0743 -9.2995 -5.4585 -6.3152 -15.8146 5.7829 -7.5681 -3.6522 2.3345 -3.5689 2.0319 0.0000 0.0000 0.0000 -90.4249 26.4959 38.8209 101.8666 -59.4612 -70.2582 -0.0000 0.0000 -17.8165 22.5414 -9.7832 -4.0343 -7.1250 0.0000 -0.0000 -3.1622 19.4135 1.9343 0.0000 0.0000 0.0000 87.6702 -15.8276 29.2252 -60.3267 56.3964 -34.6131 0.0000 -0.0000 -14.2801 -22.2907 6.0417 -2.4706 7.1250 -0.0000 -0.0000 3.2778 -23.4565 1.7049
14.6036 16.1309 -40.9468 10.6985 9.6995 26.0626 0.0000 0.0000 0.0000 -22.5796 -14.7349 -50.3197 11.7413 18.2792 65.1666 1.9937 -18.6457 -26.7533 0.0021 0.2946 0.8094 0.0000 0.0000 0.0000 17.5990 1.2045 -30.3014 -21.1066 -19.9706 93.2370 -0.0344 -1.9888 3.3686 -1.7930 8.4209 -23.9999 -2.7046 -1.6603 17.1702 -1.6634 -2.8780 0.2060 0.4466 -1.2846 -9.3845 -5.6281 -6.3054 -15.7797 5.9161 -7.5256 -3.8064 2.4155 -3.5433 1.9866 0.0000 0.0000 0.0000 -91.0600 23.0921 39.9310 101.8056 -59.4668 -70.2056 -0.0000 0.0000 -18.1450 22.2902 -9.9726 -4.0607 -7.1250 0.0000 -0.0000 -3.3466 19.2298 2.0612 0.0000 0.0000 0.0000 88.5324 -17.4369 27.1041 -54.5611 54.6772 -29.8576 0.0000 -0.0000 -14.5785 -23.0030 5.9610 -2.5245 7.1250 -0.0000 -0.0000 2.7500 -23.5095 1.4264
14.5955 16.0733 -40.4885 11.7181 9.9994 26.3057 0.0000 0.0000 0.0000 -23.4883 -15.1083 -47.8550 11.5737 18.2046 64.6310 2.2833 -19.0005 -28.4289 0.0019 0.2827 0.7768 0.0000 0.0000 0.0000 15.7014 1.1892 -34.7360 -22.4951 -19.8501 97.3127 -0.0045 -1.3079 1.4082 -1.8633 8.5753 -24.4755 -3.2602 -1.9019 17.2237 -1.8187 -3.3268 0.1358 0.7055 -1.4740 -9.4608 -5.8229 -6.3287 -15.7388 6.0807 -7.5242 -3.9571 2.5087 -3.5372 1.9470 0.0000 -0.0000 0.0000 -91.6532 19.6970 41.1620 102.4462 -59.4065 -70.7573 -0.0000 0.0000 -18.1927 22.0267 -10.1418 -4.0748 -7.1250 0.0000 -0.0000 -3.5387 19.0694 2.1925 0.0000 -0.0000 0.0000 89.1879 -19.2388 25.1880 -50.0357 53.0099 -26.2027 0.0000 -0.0000 -15.1563 -23.6893 5.9166 -2.5895 7.1250 -0.0000 -0.0000 2.2412 -23.5241 1.1613
14.5871 16.0157 -40.0305 12.5933 10.2963 26.5575 0.0000 0.0000 0.0000 -24.2296 -15.3931 -45.4234 11.3776 18.1150 64.0019 2.5471 -19.4453 -29.9197 0.0020 0.2878 0.7909 0.0000 0.0000 0.0000 13.8870 1.2451 -39.2847 -23.6978 -19.6690 100.8692 0.0018 -0.7744 -0.4506 -1.8912 8.6358 -24.6625 -3.6484 -2.1316 17.2391 -1.9443 -3.7241 0.0495 0.8879 -1.6454 -9.5374 -6.0453 -6.3874 -15.6668 6.2852 -7.5681 -4.1028 2.6177 -3.5529 1.9101 -0.0000 0.0000 0.0000 -92.2128 16.3769 42.4927 103.9245 -59.2545 -72.0288 -0.0000 0.0000 -17.9213 21.7791 -10.2604 -4.0708 -7.1250 0.0000 -0.0000 -3.7177 18.9622 2.3128 -0.0000 0.0000 0.0000 89.6575 -21.2576 23.5871 -46.6358 51.5452 -23.5129 0.0000 -0.0000 -16.0102 -24.3244 5.9435 -2.6799 7.1250 -0.0000 -0.0000 1.7715 -23.4627 0.9201
14.5785 15.9605 -39.5690 13.3197 10.5886 26.7593 0.0000 0.0000 0.0000 -24.8439 -15.5210 -42.9342 11.1392 18.0025 63.2329 2.7872 -19.8964 -31.2375 0.0017 0.2686 0.7381 0.0000 0.0000 0.0000 12.1945 1.3695 -43.8185 -24.6853 -19.4653 103.8171 -0.0112 -0.4030 -2.1867 -1.8951 8.6441 -24.6881 -3.8662 -2.3540 17.2473 -2.0449 -4.0760 -0.0355 0.9900 -1.8022 -9.6165 -6.2814 -6.4771 -15.5770 6.5118 -7.6534 -4.2265 2.7341 -3.5889 1.8826 0.0000 0.0000 0.0000 -92.7514 13.1760 43.8870 106.2933 -58.9728 -74.0617 -0.0000 0.0000 -17.4148 21.5615 -10.3209 -4.0495 -7.1250 0.0000 -0.0000 -3.8736 18.9150 2.4143 0.0000 0.0000 0.0000 89.9616 -23.4872 22.3871 -44.2291 50.3852 -21.6432 0.0000 -0.0000 -17.0456 -24.8251 6.1077 -2.8178 7.1250 -0.0000 -0.0000 1.4051 -23.2561 0.7364
14.5687 15.9114 -39.0995 13.9261 10.8540 26.9023 0.0000 0.0000 0.0000 -25.3799 -15.4568 -40.3397 10.8424 17.8571 62.2687 3.0012 -20.2926 -32.3746 0.0007 0.1699 0.4667 0.0000 0.0000 0.0000 10.6137 1.5858 -48.2514 -25.4376 -19.2758 106.0851 -0.0384 -0.1904 -3.7745 -1.8566 8.5608 -24.4308 -3.9743 -2.5705 17.2288 -2.1264 -4.3951 -0.1139 1.0416 -1.9486 -9.6798 -6.5207 -6.5880 -15.4836 6.7478 -7.7691 -4.3052 2.8519 -3.6399 1.8731 0.0000 -0.0000 0.0000 -93.2728 10.1379 45.3030 109.5372 -58.5074 -76.8349 -0.0000 0.0000 -16.8739 21.3664 -10.3107 -4.0055 -7.1250 0.0000 -0.0000 -4.0116 18.9413 2.4983 0.0000 -0.0000 0.0000 90.1183 -25.8959 21.6319 -42.6599 49.5692 -20.4415 0.0000 -0.0000 -18.0473 -25.1655 6.4712 -3.0311 7.1250 -0.0000 -0.0000 1.1641 -22.8370 0.6211
